<mxfile host="app.diagrams.net" modified="2022-02-08T06:22:47.717Z" agent="5.0 (Windows NT 10.0; Win64; x64) AppleWebKit/537.36 (KHTML, like Gecko) Chrome/97.0.4692.99 Safari/537.36" etag="BFcOaadqr3eB2KUyfwjt" version="16.5.3" type="github">
  <diagram id="gynHdKjF2gEvQLG0rvPD" name="Page-1">
    <mxGraphModel dx="1038" dy="579" grid="1" gridSize="10" guides="1" tooltips="1" connect="1" arrows="1" fold="1" page="1" pageScale="1" pageWidth="827" pageHeight="1169" math="0" shadow="0">
      <root>
        <mxCell id="0" />
        <mxCell id="1" parent="0" />
        <mxCell id="B9dDigpWkNQUAO7QgAhs-1" value="Actor" style="shape=umlActor;verticalLabelPosition=bottom;verticalAlign=top;html=1;outlineConnect=0;" vertex="1" parent="1">
          <mxGeometry x="30" y="480" width="30" height="60" as="geometry" />
        </mxCell>
        <mxCell id="B9dDigpWkNQUAO7QgAhs-4" value="" style="ellipse;whiteSpace=wrap;html=1;" vertex="1" parent="1">
          <mxGeometry x="360" y="280" width="120" height="40" as="geometry" />
        </mxCell>
        <mxCell id="B9dDigpWkNQUAO7QgAhs-5" value="" style="ellipse;whiteSpace=wrap;html=1;" vertex="1" parent="1">
          <mxGeometry x="360" y="340" width="120" height="40" as="geometry" />
        </mxCell>
        <mxCell id="B9dDigpWkNQUAO7QgAhs-6" value="" style="ellipse;whiteSpace=wrap;html=1;" vertex="1" parent="1">
          <mxGeometry x="110" y="400" width="120" height="40" as="geometry" />
        </mxCell>
        <mxCell id="B9dDigpWkNQUAO7QgAhs-8" value="Actor" style="shape=umlActor;verticalLabelPosition=bottom;verticalAlign=top;html=1;outlineConnect=0;" vertex="1" parent="1">
          <mxGeometry x="720" y="480" width="30" height="60" as="geometry" />
        </mxCell>
        <mxCell id="B9dDigpWkNQUAO7QgAhs-10" value="" style="endArrow=classic;html=1;rounded=0;exitX=1;exitY=0.3333333333333333;exitDx=0;exitDy=0;exitPerimeter=0;entryX=0.053;entryY=0.835;entryDx=0;entryDy=0;entryPerimeter=0;" edge="1" parent="1" source="B9dDigpWkNQUAO7QgAhs-1" target="B9dDigpWkNQUAO7QgAhs-6">
          <mxGeometry width="50" height="50" relative="1" as="geometry">
            <mxPoint x="390" y="520" as="sourcePoint" />
            <mxPoint x="440" y="470" as="targetPoint" />
          </mxGeometry>
        </mxCell>
        <mxCell id="B9dDigpWkNQUAO7QgAhs-12" value="" style="ellipse;whiteSpace=wrap;html=1;" vertex="1" parent="1">
          <mxGeometry x="360" y="400" width="120" height="40" as="geometry" />
        </mxCell>
        <mxCell id="B9dDigpWkNQUAO7QgAhs-13" value="비회원" style="text;html=1;strokeColor=none;fillColor=none;align=center;verticalAlign=middle;whiteSpace=wrap;rounded=0;labelBackgroundColor=#FFFFFF;" vertex="1" parent="1">
          <mxGeometry x="15" y="540" width="60" height="30" as="geometry" />
        </mxCell>
        <mxCell id="B9dDigpWkNQUAO7QgAhs-16" value="&amp;nbsp; 회원&amp;nbsp;&amp;nbsp;" style="text;html=1;strokeColor=none;fillColor=none;align=center;verticalAlign=middle;whiteSpace=wrap;rounded=0;labelBackgroundColor=#FFFFFF;" vertex="1" parent="1">
          <mxGeometry x="705" y="540" width="60" height="30" as="geometry" />
        </mxCell>
        <mxCell id="B9dDigpWkNQUAO7QgAhs-17" value="회원가입" style="text;html=1;strokeColor=none;fillColor=none;align=center;verticalAlign=middle;whiteSpace=wrap;rounded=0;labelBackgroundColor=#FFFFFF;" vertex="1" parent="1">
          <mxGeometry x="140" y="405" width="60" height="30" as="geometry" />
        </mxCell>
        <mxCell id="B9dDigpWkNQUAO7QgAhs-18" value="로그인" style="text;html=1;strokeColor=none;fillColor=none;align=center;verticalAlign=middle;whiteSpace=wrap;rounded=0;labelBackgroundColor=#FFFFFF;" vertex="1" parent="1">
          <mxGeometry x="384" y="285" width="60" height="30" as="geometry" />
        </mxCell>
        <mxCell id="B9dDigpWkNQUAO7QgAhs-19" value="" style="ellipse;whiteSpace=wrap;html=1;" vertex="1" parent="1">
          <mxGeometry x="360" y="460" width="120" height="40" as="geometry" />
        </mxCell>
        <mxCell id="B9dDigpWkNQUAO7QgAhs-20" value="" style="ellipse;whiteSpace=wrap;html=1;" vertex="1" parent="1">
          <mxGeometry x="360" y="520" width="120" height="40" as="geometry" />
        </mxCell>
        <mxCell id="B9dDigpWkNQUAO7QgAhs-21" value="" style="ellipse;whiteSpace=wrap;html=1;" vertex="1" parent="1">
          <mxGeometry x="360" y="600" width="120" height="40" as="geometry" />
        </mxCell>
        <mxCell id="B9dDigpWkNQUAO7QgAhs-23" value="" style="endArrow=classic;html=1;rounded=0;exitX=0;exitY=0.3333333333333333;exitDx=0;exitDy=0;exitPerimeter=0;entryX=1;entryY=0.5;entryDx=0;entryDy=0;" edge="1" parent="1" source="B9dDigpWkNQUAO7QgAhs-8" target="B9dDigpWkNQUAO7QgAhs-4">
          <mxGeometry width="50" height="50" relative="1" as="geometry">
            <mxPoint x="390" y="520" as="sourcePoint" />
            <mxPoint x="440" y="470" as="targetPoint" />
          </mxGeometry>
        </mxCell>
      </root>
    </mxGraphModel>
  </diagram>
</mxfile>
